%TF.GenerationSoftware,KiCad,Pcbnew,8.0.0*%
%TF.CreationDate,2024-12-31T13:39:28+02:00*%
%TF.ProjectId,Entry,456e7472-792e-46b6-9963-61645f706362,rev?*%
%TF.SameCoordinates,Original*%
%TF.FileFunction,Soldermask,Top*%
%TF.FilePolarity,Negative*%
%FSLAX46Y46*%
G04 Gerber Fmt 4.6, Leading zero omitted, Abs format (unit mm)*
G04 Created by KiCad (PCBNEW 8.0.0) date 2024-12-31 13:39:28*
%MOMM*%
%LPD*%
G01*
G04 APERTURE LIST*
G04 Aperture macros list*
%AMRoundRect*
0 Rectangle with rounded corners*
0 $1 Rounding radius*
0 $2 $3 $4 $5 $6 $7 $8 $9 X,Y pos of 4 corners*
0 Add a 4 corners polygon primitive as box body*
4,1,4,$2,$3,$4,$5,$6,$7,$8,$9,$2,$3,0*
0 Add four circle primitives for the rounded corners*
1,1,$1+$1,$2,$3*
1,1,$1+$1,$4,$5*
1,1,$1+$1,$6,$7*
1,1,$1+$1,$8,$9*
0 Add four rect primitives between the rounded corners*
20,1,$1+$1,$2,$3,$4,$5,0*
20,1,$1+$1,$4,$5,$6,$7,0*
20,1,$1+$1,$6,$7,$8,$9,0*
20,1,$1+$1,$8,$9,$2,$3,0*%
G04 Aperture macros list end*
%ADD10RoundRect,0.500000X2.100000X-0.500000X2.100000X0.500000X-2.100000X0.500000X-2.100000X-0.500000X0*%
%ADD11RoundRect,0.250000X2.350000X-0.750000X2.350000X0.750000X-2.350000X0.750000X-2.350000X-0.750000X0*%
%ADD12RoundRect,0.150000X0.587500X0.150000X-0.587500X0.150000X-0.587500X-0.150000X0.587500X-0.150000X0*%
%ADD13R,1.955800X2.260600*%
%ADD14R,1.300000X1.500000*%
%ADD15C,2.000000*%
%ADD16RoundRect,0.250000X0.625000X-0.312500X0.625000X0.312500X-0.625000X0.312500X-0.625000X-0.312500X0*%
%ADD17RoundRect,0.250000X0.412500X0.650000X-0.412500X0.650000X-0.412500X-0.650000X0.412500X-0.650000X0*%
%ADD18RoundRect,0.250000X-0.625000X0.312500X-0.625000X-0.312500X0.625000X-0.312500X0.625000X0.312500X0*%
%ADD19RoundRect,0.250000X0.312500X0.625000X-0.312500X0.625000X-0.312500X-0.625000X0.312500X-0.625000X0*%
%ADD20RoundRect,0.250000X-0.412500X-0.650000X0.412500X-0.650000X0.412500X0.650000X-0.412500X0.650000X0*%
%ADD21RoundRect,0.250000X-0.650000X0.412500X-0.650000X-0.412500X0.650000X-0.412500X0.650000X0.412500X0*%
%ADD22R,2.260600X1.955800*%
%ADD23RoundRect,0.250000X-0.312500X-0.625000X0.312500X-0.625000X0.312500X0.625000X-0.312500X0.625000X0*%
%ADD24R,1.524000X0.457200*%
G04 APERTURE END LIST*
D10*
%TO.C,L1*%
X47970000Y-79897500D03*
D11*
X47960000Y-83197500D03*
%TD*%
%TO.C,L3*%
X38660000Y-84720000D03*
D10*
X38710000Y-81360000D03*
%TD*%
D12*
%TO.C,Q2*%
X60337500Y-84650000D03*
X60337500Y-82750000D03*
X58462500Y-83700000D03*
%TD*%
D13*
%TO.C,CR3*%
X45308300Y-75370000D03*
X49651700Y-75370000D03*
%TD*%
D14*
%TO.C,LED1*%
X77550000Y-72550000D03*
X77550000Y-77450000D03*
X75950000Y-72550000D03*
X75950000Y-77450000D03*
X74350000Y-72550000D03*
X74350000Y-77450000D03*
%TD*%
D15*
%TO.C,PicoW1*%
X30500000Y-87480000D03*
X33040000Y-87480000D03*
X35580000Y-87480000D03*
X38120000Y-87480000D03*
X40660000Y-87480000D03*
X43200000Y-87480000D03*
X45740000Y-87480000D03*
X48280000Y-87480000D03*
X50820000Y-87480000D03*
X53360000Y-87480000D03*
X55900000Y-87480000D03*
X58440000Y-87480000D03*
X60980000Y-87480000D03*
X63520000Y-87480000D03*
X66060000Y-87480000D03*
X68600000Y-87438119D03*
X71140000Y-87480000D03*
X73680000Y-87480000D03*
X76220000Y-87480000D03*
X78760000Y-87480000D03*
X78760000Y-69700000D03*
X76220000Y-69700000D03*
X73680000Y-69700000D03*
X71140000Y-69700000D03*
X68600000Y-69700000D03*
X66060000Y-69700000D03*
X63520000Y-69700000D03*
X60980000Y-69700000D03*
X58440000Y-69700000D03*
X55900000Y-69700000D03*
X53360000Y-69700000D03*
X50820000Y-69700000D03*
X48280000Y-69700000D03*
X45740000Y-69700000D03*
X43200000Y-69700000D03*
X40660000Y-69700000D03*
X38120000Y-69700000D03*
X35580000Y-69700000D03*
X33040000Y-69700000D03*
X30500000Y-69700000D03*
%TD*%
D16*
%TO.C,R_LED_G1*%
X74000000Y-83362500D03*
X74000000Y-80437500D03*
%TD*%
D17*
%TO.C,C_GND1*%
X33402500Y-72760000D03*
X30277500Y-72760000D03*
%TD*%
D13*
%TO.C,CR2*%
X39301700Y-77190000D03*
X34958300Y-77190000D03*
%TD*%
D18*
%TO.C,Rf3*%
X65800000Y-74337500D03*
X65800000Y-77262500D03*
%TD*%
D19*
%TO.C,Rsch1*%
X56662500Y-80100000D03*
X53737500Y-80100000D03*
%TD*%
D20*
%TO.C,C1*%
X65337500Y-80500000D03*
X68462500Y-80500000D03*
%TD*%
D19*
%TO.C,Rf1*%
X57362500Y-72700000D03*
X54437500Y-72700000D03*
%TD*%
D21*
%TO.C,C_oscilato1*%
X43270000Y-79147500D03*
X43270000Y-82272500D03*
%TD*%
D22*
%TO.C,CR1*%
X30490000Y-80531700D03*
X30490000Y-76188300D03*
%TD*%
D18*
%TO.C,Rf4*%
X68900000Y-74237500D03*
X68900000Y-77162500D03*
%TD*%
D23*
%TO.C,R_LED_B1*%
X63737500Y-84300000D03*
X66662500Y-84300000D03*
%TD*%
D17*
%TO.C,C_supply1*%
X55502500Y-83940000D03*
X52377500Y-83940000D03*
%TD*%
D16*
%TO.C,R_LED_R1*%
X77200000Y-84762500D03*
X77200000Y-81837500D03*
%TD*%
D20*
%TO.C,C_GND2*%
X37957500Y-72900000D03*
X41082500Y-72900000D03*
%TD*%
%TO.C,C_oscilato2*%
X29437500Y-84250000D03*
X32562500Y-84250000D03*
%TD*%
D19*
%TO.C,Rg1*%
X62662500Y-72600000D03*
X59737500Y-72600000D03*
%TD*%
%TO.C,Rf2*%
X62462500Y-80000000D03*
X59537500Y-80000000D03*
%TD*%
D24*
%TO.C,8_pin_op_amp1*%
X61644700Y-77074999D03*
X61644700Y-76425001D03*
X61644700Y-75774999D03*
X61644700Y-75125001D03*
X57555300Y-75125001D03*
X57555300Y-75774999D03*
X57555300Y-76425001D03*
X57555300Y-77074999D03*
%TD*%
M02*
