%TF.GenerationSoftware,KiCad,Pcbnew,8.0.0*%
%TF.CreationDate,2024-12-31T13:39:33+02:00*%
%TF.ProjectId,Entry,456e7472-792e-46b6-9963-61645f706362,rev?*%
%TF.SameCoordinates,Original*%
%TF.FileFunction,Plated,1,2,PTH,Drill*%
%TF.FilePolarity,Positive*%
%FSLAX46Y46*%
G04 Gerber Fmt 4.6, Leading zero omitted, Abs format (unit mm)*
G04 Created by KiCad (PCBNEW 8.0.0) date 2024-12-31 13:39:33*
%MOMM*%
%LPD*%
G01*
G04 APERTURE LIST*
%TA.AperFunction,ComponentDrill*%
%ADD10C,1.000000*%
%TD*%
G04 APERTURE END LIST*
D10*
%TO.C,PicoW1*%
X30500000Y-69700000D03*
X30500000Y-87480000D03*
X33040000Y-69700000D03*
X33040000Y-87480000D03*
X35580000Y-69700000D03*
X35580000Y-87480000D03*
X38120000Y-69700000D03*
X38120000Y-87480000D03*
X40660000Y-69700000D03*
X40660000Y-87480000D03*
X43200000Y-69700000D03*
X43200000Y-87480000D03*
X45740000Y-69700000D03*
X45740000Y-87480000D03*
X48280000Y-69700000D03*
X48280000Y-87480000D03*
X50820000Y-69700000D03*
X50820000Y-87480000D03*
X53360000Y-69700000D03*
X53360000Y-87480000D03*
X55900000Y-69700000D03*
X55900000Y-87480000D03*
X58440000Y-69700000D03*
X58440000Y-87480000D03*
X60980000Y-69700000D03*
X60980000Y-87480000D03*
X63520000Y-69700000D03*
X63520000Y-87480000D03*
X66060000Y-69700000D03*
X66060000Y-87480000D03*
X68600000Y-69700000D03*
X68600000Y-87438119D03*
X71140000Y-69700000D03*
X71140000Y-87480000D03*
X73680000Y-69700000D03*
X73680000Y-87480000D03*
X76220000Y-69700000D03*
X76220000Y-87480000D03*
X78760000Y-69700000D03*
X78760000Y-87480000D03*
M02*
