%TF.GenerationSoftware,KiCad,Pcbnew,8.0.0*%
%TF.CreationDate,2024-09-29T18:34:12+03:00*%
%TF.ProjectId,diploma_pcb,6469706c-6f6d-4615-9f70-63622e6b6963,rev?*%
%TF.SameCoordinates,Original*%
%TF.FileFunction,Soldermask,Top*%
%TF.FilePolarity,Negative*%
%FSLAX46Y46*%
G04 Gerber Fmt 4.6, Leading zero omitted, Abs format (unit mm)*
G04 Created by KiCad (PCBNEW 8.0.0) date 2024-09-29 18:34:12*
%MOMM*%
%LPD*%
G01*
G04 APERTURE LIST*
G04 Aperture macros list*
%AMRoundRect*
0 Rectangle with rounded corners*
0 $1 Rounding radius*
0 $2 $3 $4 $5 $6 $7 $8 $9 X,Y pos of 4 corners*
0 Add a 4 corners polygon primitive as box body*
4,1,4,$2,$3,$4,$5,$6,$7,$8,$9,$2,$3,0*
0 Add four circle primitives for the rounded corners*
1,1,$1+$1,$2,$3*
1,1,$1+$1,$4,$5*
1,1,$1+$1,$6,$7*
1,1,$1+$1,$8,$9*
0 Add four rect primitives between the rounded corners*
20,1,$1+$1,$2,$3,$4,$5,0*
20,1,$1+$1,$4,$5,$6,$7,0*
20,1,$1+$1,$6,$7,$8,$9,0*
20,1,$1+$1,$8,$9,$2,$3,0*%
G04 Aperture macros list end*
%ADD10RoundRect,0.167500X-0.642500X-0.167500X0.642500X-0.167500X0.642500X0.167500X-0.642500X0.167500X0*%
%ADD11RoundRect,0.102000X-0.485000X-0.865000X0.485000X-0.865000X0.485000X0.865000X-0.485000X0.865000X0*%
%ADD12RoundRect,0.102000X0.485000X0.865000X-0.485000X0.865000X-0.485000X-0.865000X0.485000X-0.865000X0*%
%ADD13R,1.700000X1.700000*%
%ADD14RoundRect,0.208750X-0.208750X-0.431250X0.208750X-0.431250X0.208750X0.431250X-0.208750X0.431250X0*%
%ADD15R,1.473200X0.558800*%
%ADD16R,0.558800X1.473200*%
%ADD17R,1.600000X1.600000*%
%ADD18O,1.600000X1.600000*%
G04 APERTURE END LIST*
D10*
%TO.C,U2*%
X53950000Y-59095000D03*
X53950000Y-60365000D03*
X53950000Y-61635000D03*
X53950000Y-62905000D03*
X48550000Y-62905000D03*
X48550000Y-61635000D03*
X48550000Y-60365000D03*
X48550000Y-59095000D03*
%TD*%
D11*
%TO.C,R3*%
X56520000Y-66250000D03*
X59480000Y-66250000D03*
%TD*%
D12*
%TO.C,R2*%
X52230000Y-66250000D03*
X49270000Y-66250000D03*
%TD*%
D11*
%TO.C,R1*%
X37770000Y-59000000D03*
X40730000Y-59000000D03*
%TD*%
D13*
%TO.C,J3*%
X30500000Y-63848300D03*
%TD*%
%TO.C,+9V1*%
X30500000Y-59000000D03*
%TD*%
D14*
%TO.C,C104*%
X43622500Y-59000000D03*
X44877500Y-59000000D03*
%TD*%
%TO.C,C226*%
X59122500Y-60500000D03*
X60377500Y-60500000D03*
%TD*%
D15*
%TO.C,Q3*%
X36867600Y-64700001D03*
X36867600Y-62799999D03*
X34632400Y-63750000D03*
%TD*%
D16*
%TO.C,Q1*%
X41000000Y-64867600D03*
X40049999Y-62632400D03*
X41950001Y-62632400D03*
%TD*%
D14*
%TO.C,C6*%
X60500000Y-58250000D03*
X59245000Y-58250000D03*
%TD*%
D17*
%TO.C,A1*%
X32450000Y-69860000D03*
D18*
X34990000Y-69860000D03*
X37530000Y-69860000D03*
X40070000Y-69860000D03*
X42610000Y-69860000D03*
X45150000Y-69860000D03*
X47690000Y-69860000D03*
X50230000Y-69860000D03*
X52770000Y-69860000D03*
X55310000Y-69860000D03*
X57850000Y-69860000D03*
X60390000Y-69860000D03*
X62930000Y-69860000D03*
X65470000Y-69860000D03*
X68010000Y-69860000D03*
X68010000Y-54620000D03*
X65470000Y-54620000D03*
X62930000Y-54620000D03*
X60390000Y-54620000D03*
X57850000Y-54620000D03*
X55310000Y-54620000D03*
X52770000Y-54620000D03*
X50230000Y-54620000D03*
X47690000Y-54620000D03*
X45150000Y-54620000D03*
X42610000Y-54620000D03*
X40070000Y-54620000D03*
X37530000Y-54620000D03*
X34990000Y-54620000D03*
X32450000Y-54620000D03*
%TD*%
M02*
